<?xml version="1.0" encoding="UTF-8"?>
<svg id="Capa_1" data-name="Capa 1" xmlns="http://www.w3.org/2000/svg" viewBox="0 0 747.29 320.86">
  <defs>
    <style>
      .cls-1 {
        fill: #fff;
      }
    </style>
  </defs>
  <g>
    <g>
      <path class="cls-1" d="M271.16,189.58v49.93h-16.37v-22.49h-39.45v22.49h-16.37v-49.93c0-20.37,14.37-33.92,36.03-33.92s36.15,13.54,36.15,33.92ZM215.34,203.24h39.45v-13.31c0-11.31-7.89-19.31-19.55-19.31s-19.9,7.89-19.9,19.08v13.54Z"/>
      <path class="cls-1" d="M287.53,216.55v-65.48h15.19v63.94c0,8.13,3.65,12.48,9.66,12.48,1.3,0,2.83-.12,4.36-.35v13.07c-2.47.35-4.71.59-6.83.59-16.02,0-22.38-11.19-22.38-24.26Z"/>
      <path class="cls-1" d="M362.66,226.44v12.72c-3.42,1.06-8.24,1.65-12.48,1.65-18.72,0-24.61-13.66-24.61-27.56v-42.39l13.66-8.71h1.53v17.19h20.14v12.25h-20.14v21.79c0,8.36,4,14.37,12.48,14.37,3.18,0,6.48-.47,9.42-1.3Z"/>
      <path class="cls-1" d="M371.85,159.08c0-5.18,4.24-9.07,9.42-9.07s9.54,3.89,9.54,9.07-4.24,9.07-9.54,9.07-9.42-3.89-9.42-9.07ZM373.73,239.4v-60.06h15.19v60.06h-15.19Z"/>
      <path class="cls-1" d="M470.41,209.37c0,19.31-13.31,31.44-29.32,31.44-7.77,0-14.96-2.94-19.55-7.3v63.31h-15.19v-117.48h15.31v5.89c4.59-4.36,11.66-7.3,19.43-7.3,16.02,0,29.32,12.13,29.32,31.44ZM455.46,209.37c-.12-11.66-8.36-18.72-17.66-18.72-5.53,0-11.78,2.59-16.13,6.71l-.12,24.02c4.48,4.12,10.6,6.71,16.25,6.71,9.3,0,17.55-7.07,17.66-18.72Z"/>
      <path class="cls-1" d="M483.01,216.55v-65.48h15.19v63.94c0,8.13,3.65,12.48,9.66,12.48,1.3,0,2.83-.12,4.36-.35v13.07c-2.47.35-4.71.59-6.83.59-16.02,0-22.38-11.19-22.38-24.26Z"/>
      <path class="cls-1" d="M566.62,179.34h15.31v60.06h-15.31v-6.01c-4.59,4.47-11.78,7.42-19.43,7.42-16.02,0-29.44-12.13-29.44-31.44s13.42-31.44,29.44-31.44c7.65,0,14.84,2.94,19.43,7.42v-6.01ZM566.62,221.38v-24.02c-4.36-4.12-10.48-6.71-16.13-6.71-9.42,0-17.55,7.07-17.66,18.72.12,11.66,8.24,18.72,17.66,18.72,5.65,0,11.78-2.59,16.13-6.71Z"/>
      <path class="cls-1" d="M656,201.6v37.8h-15.19v-35.92c0-8.01-4.71-12.48-11.78-12.48-5.42,0-10.83,3.18-14.49,8.13v40.27h-15.19v-60.06h15.19v7.42c4.48-5.3,11.78-8.83,19.43-8.83,12.72,0,22.02,8.24,22.02,23.67Z"/>
      <path class="cls-1" d="M668.48,209.37c0-18.37,14.49-31.44,32.62-31.44s32.62,13.07,32.62,31.44-14.48,31.44-32.62,31.44-32.62-13.19-32.62-31.44ZM718.77,209.37c0-10.48-8.01-18.25-17.66-18.25s-17.55,7.77-17.55,18.25,8.01,18.25,17.55,18.25,17.66-7.77,17.66-18.25Z"/>
    </g>
    <path class="cls-1" d="M478.27,266.43s.02,0,.02,0c0,0,0,0,0,0,0,0-.02,0-.03,0Z"/>
    <path class="cls-1" d="M196.07,143.02c-.02,1.56-.04,3.66-.05,5.76-.01,1.95,2.72,3.2,3.72,1.53,5.15-8.6,16.37-10.1,20.96-10.44,1.06-.08,1.81-1.07,1.6-2.11-3.26-15.97-21.95-107.88-50.25-118.03-17.76-6.37-28.35,4.02-32.89,9.97-5.03,6.59-9.01,14.19-12.84,21.55-4.12,7.92-7.82,16.05-11.1,24.36-2.46,6.23-5.11,14.15-11.47,17.32-6.76,3.37-10.98-2.97-14.64-7.71-4.27-5.53-10.81-7.32-17.4-5.54-6.92,1.87-11.87,7.39-15.52,13.44-4.16,6.9-7.19,14.5-10.25,21.95-13.35,32.53-26.34,88.64-32.28,123.38-.08.45-.22.8.23.83,2.38.15,152.81.42,152.81-.04.52-40,1.75-42.36-4.92-41.75-3.81.35-7.12-2.51-9.53-5.24-6.3-7.15-9.05-17.67-10.48-26.82-1.25-7.99-2.68-18.93,3.49-25.41,2.16-2.27,5.29-3.64,8.46-2.91,3.55.82,5.39,3.59,6.82,6.69,1.72,3.72,2.44,7.75,3.15,11.75.18,1.02.55,3.74,1.46,5.67.43.9,1.76.7,1.88-.29,1.02-8.26.3-16.96-.05-25.08-.32-7.45-.62-14.91,0-22.35.56-6.79-.3-26.2,14.35-27.1,10-.62,12.67,6.44,13.87,11.04,1.71,6.58.97,38.84.88,45.58Z"/>
  </g>
  <g>
    <polygon class="cls-1" points="433.66 297.11 455.64 297.11 455.64 293.89 437.05 293.89 437.05 279.14 452.27 279.14 452.27 275.91 437.05 275.91 437.05 260.44 455.64 260.44 455.64 257.21 433.66 257.21 433.66 297.11"/>
    <polygon class="cls-1" points="486.53 268.56 486.53 267.88 483.18 267.88 474.67 278.49 466.16 267.88 462.81 267.88 462.81 268.56 472.78 281.04 460.51 296.36 460.45 296.44 460.45 297.11 463.8 297.11 474.67 283.58 485.54 297.11 488.89 297.11 488.89 296.44 476.61 281.04 486.53 268.56"/>
    <path class="cls-1" d="M510.45,267.21c-4.22,0-8.37,1.66-10.83,4.28v-3.61h-3.28v40.18h3.28v-14.56c2.48,2.66,6.54,4.28,10.83,4.28,8.54,0,14.5-6.31,14.5-15.34s-5.96-15.23-14.5-15.23ZM521.67,282.5c-.05,7.2-4.71,12.24-11.33,12.24-4.1,0-8.3-1.99-10.72-5.09v-14.29c2.39-3.19,6.32-5.08,10.55-5.08,6.83,0,11.45,4.92,11.5,12.23Z"/>
    <path class="cls-1" d="M546.17,267.21c-8.27,0-13.83,6.05-13.83,15.06s5.87,15.51,14.61,15.51c3.5,0,7.7-1.01,10.2-2.45l.15-.08v-3.17l-.42.21c-3.02,1.48-6.87,2.44-9.81,2.44-6.81,0-11.39-5.03-11.39-12.51v-.16h23.13l.06-.22c.07-.26.07-.56.07-.97,0-8.17-5.13-13.66-12.76-13.66ZM535.96,279.17c1.02-5.5,4.93-8.91,10.27-8.91s8.89,3.48,9.35,8.91h-19.61Z"/>
    <path class="cls-1" d="M581.17,267.21c-3.69,0-7.29,2.27-9.48,4.41v-3.73h-3.28v29.23h3.28v-22.36c2.4-2.56,5.93-4.2,9.02-4.2l1.49.07v-3.27l-.2-.07c-.21-.07-.51-.07-.82-.07Z"/>
    <path class="cls-1" d="M591.95,256.76c-1.28,0-2.37,1.09-2.37,2.37s1.09,2.37,2.37,2.37,2.37-1.09,2.37-2.37-1.09-2.37-2.37-2.37Z"/>
    <rect class="cls-1" x="590.31" y="267.88" width="3.28" height="29.23"/>
    <path class="cls-1" d="M617.34,267.21c-8.27,0-13.83,6.05-13.83,15.06s5.87,15.51,14.61,15.51c3.5,0,7.7-1.01,10.2-2.45l.15-.08v-3.17l-.42.21c-3.02,1.48-6.87,2.44-9.81,2.44-6.81,0-11.39-5.03-11.39-12.51v-.16h23.13l.06-.22c.07-.26.07-.56.07-.97,0-8.17-5.13-13.66-12.76-13.66ZM607.13,279.17c1.02-5.5,4.93-8.91,10.27-8.91s8.89,3.48,9.35,8.91h-19.61Z"/>
    <path class="cls-1" d="M652.89,267.21c-4.06,0-7.75,1.87-10.04,5.05v-4.38h-3.28v29.23h3.28v-20.39c1.93-3.87,5.82-6.46,9.7-6.46s7.8,2.3,7.8,8.75v18.1h3.23v-18.1c0-5.45-2.8-11.81-10.68-11.81Z"/>
    <path class="cls-1" d="M688.17,267.21c-8.83,0-15.23,6.43-15.23,15.29s6.41,15.29,15.23,15.29c2.98,0,5.88-.71,8.18-2l.15-.08v-3.1h-.67l-.08.05c-1.85,1.32-4.53,2.08-7.36,2.08-7.06,0-12.18-5.14-12.18-12.23s5.12-12.23,12.18-12.23c2.82,0,5.51.76,7.36,2.08l.08.05h.67v-3.1l-.15-.08c-2.29-1.29-5.19-2-8.18-2Z"/>
    <path class="cls-1" d="M716.65,267.21c-8.27,0-13.83,6.05-13.83,15.06s5.87,15.51,14.61,15.51c3.5,0,7.7-1.01,10.2-2.45l.15-.08v-3.17l-.42.21c-3.02,1.48-6.87,2.44-9.81,2.44-6.81,0-11.39-5.03-11.39-12.51v-.16h23.13l.06-.22c.07-.26.07-.56.07-.97,0-8.17-5.13-13.66-12.76-13.66ZM706.43,279.17c1.02-5.5,4.93-8.91,10.27-8.91s8.89,3.48,9.35,8.91h-19.61Z"/>
  </g>
</svg>